<?xml version="1.0" encoding="UTF-8"?>
<svg data-bbox="0 0 591 595" xmlns="http://www.w3.org/2000/svg" viewBox="0 0 591 595" height="595" width="591" data-type="color">
    <g>
        <path fill="#ffffff" d="M591 0v595H0V0z" data-color="1"/>
        <path fill="#064402" d="M233.523 134h-51.874v43.959h-43.955v51.874h43.955v43.955h51.874v-43.955h43.96v-51.874h-43.96z" clip-rule="evenodd" fill-rule="evenodd" data-color="2"/>
        <path fill="#63B25F" d="m175.788 313.933 65.043 53.217c16.26 0 60.953-.409 72.961-.409 7.625 0 14.996-7.705 9.993-12.708h-50.658s-25.194-.145-24.391-20.638c.285-7.29 2.467-13.164 5.512-17.802 8.756-13.342 26.962-14.094 42.921-14.094 23.259 0 45.931-11.049 69.155-12.321 11.268-.617 22.53 1.415 32.154 4.365 13.067 4.005 23.302 13.663 31.383 24.685l45.498 62.056-79.513 79.406-21.803-30.625H240.831c-18.899 0-33.772-16.886-33.772-16.886L117 314.616c.833-13.327 9.407-18.026 19.119-18.714 14.948-1.059 28.071 8.542 39.669 18.031" data-color="3"/>
        <path fill="#036B00" d="M302.897 273.793c-5.081-43.569 1.817-108.198 92.948-139.06 13.074 49.742 0 107.835-92.948 139.06" data-color="4"/>
    </g>
</svg>
